HIERARCHY
ROOT Hip
{
	OFFSET	0.0000	0.0000	0.0000
	CHANNELS 6 Xposition Yposition Zposition Xrotation Yrotation Zrotation
	JOINT LowerSpine
	{
		OFFSET	0.0000	8.3453	-5.1292
		CHANNELS 3 Xrotation Yrotation Zrotation
		JOINT MiddleSpine
		{
			OFFSET	10.8569	0.0000	0.0000
			CHANNELS 3 Xrotation Yrotation Zrotation
			JOINT Chest
			{
				OFFSET	15.2984	0.0000	0.0000
				CHANNELS 3 Xrotation Yrotation Zrotation
				JOINT Neck
				{
					OFFSET	25.6618	-0.5986	0.0000
					CHANNELS 3 Xrotation Yrotation Zrotation
					JOINT Head
					{
						OFFSET	8.8829	0.0000	0.0000
						CHANNELS 3 Xrotation Yrotation Zrotation
						End Site
						{
							OFFSET	19.7399	0.0000	0.0000
						}
					}
				}
				JOINT RClavicle
				{
					OFFSET	23.6878	0.0000	3.1584
					CHANNELS 3 Xrotation Yrotation Zrotation
					JOINT RShoulder
					{
						OFFSET	-15.5945	-3.9480	0.9870
						CHANNELS 3 Xrotation Yrotation Zrotation
						JOINT RForearm
						{
							OFFSET	-31.3370	0.0000	0.1974
							CHANNELS 3 Xrotation Yrotation Zrotation
							JOINT RHand
							{
								OFFSET	-26.4021	0.0000	0.0000
								CHANNELS 3 Xrotation Yrotation Zrotation
								End Site
								{
									OFFSET	-15.7919	-0.9870	0.0000
								}
							}
						}
					}
				}
				JOINT LClavicle
				{
					OFFSET	23.6878	0.0000	-3.1584
					CHANNELS 3 Xrotation Yrotation Zrotation
					JOINT LShoulder
					{
						OFFSET	-15.5945	-3.9480	-0.9870
						CHANNELS 3 Xrotation Yrotation Zrotation
						JOINT LForearm
						{
							OFFSET	-31.3370	0.0000	-0.1974
							CHANNELS 3 Xrotation Yrotation Zrotation
							JOINT LHand
							{
								OFFSET	-26.4021	0.0000	0.0000
								CHANNELS 3 Xrotation Yrotation Zrotation
								End Site
								{
									OFFSET	-15.7919	-0.9870	0.0000
								}
							}
						}
					}
				}
			}
		}
	}
	JOINT RThigh
	{
		OFFSET	-8.8829	0.4481	0.0000
		CHANNELS 3 Xrotation Yrotation Zrotation
		JOINT RShin
		{
			OFFSET	43.1316	0.0000	-0.4935
			CHANNELS 3 Xrotation Yrotation Zrotation
			JOINT RFoot
			{
				OFFSET	0.0000	-44.7256	-0.4047
				CHANNELS 3 Xrotation Yrotation Zrotation
				JOINT RToe
				{
					OFFSET	0.0000	-3.9332	12.1953
					CHANNELS 3 Xrotation Yrotation Zrotation
					End Site
					{
						OFFSET	6.7725	0.0000	0.0000
					}
				}
			}
		}
	}
	JOINT LThigh
	{
		OFFSET	8.8829	0.4481	0.0000
		CHANNELS 3 Xrotation Yrotation Zrotation
		JOINT LShin
		{
			OFFSET	43.1316	0.0000	0.4935
			CHANNELS 3 Xrotation Yrotation Zrotation
			JOINT LFoot
			{
				OFFSET	0.0000	-44.7256	0.4047
				CHANNELS 3 Xrotation Yrotation Zrotation
				JOINT LToe
				{
					OFFSET	0.0000	-3.9332	-12.1953
					CHANNELS 3 Xrotation Yrotation Zrotation
					End Site
					{
						OFFSET	6.7725	0.0000	0.0000
					}
				}
			}
		}
	}
}
MOTION
Frames:	17
Frame Time: 0.0169491000
	0.0000	93.1363	0.0000	0.000000	0.000000	0.000000	-89.999990	-90.000000	0.000000	0.000000	0.000000	0.000000	0.000000	0.000000	0.000000	0.000000	0.000000	0.000000	0.000000	0.000000	0.000000	89.999990	0.000003	-89.999990	0.129889	-2.857029	4.156837	0.255388	4.965908	-5.884634	0.000000	0.000000	0.000000	-89.999990	-0.000003	-89.999990	-0.129889	2.857029	4.156894	-0.255388	-4.965908	-5.884634	0.000000	0.000000	0.000000	-89.999990	90.000000	0.000000	89.999990	-0.000003	89.999990	0.000000	0.000000	0.000000	180.000000	90.000000	0.000000	-89.999990	90.000000	0.000000	-90.000000	-0.000003	89.999990	0.000000	0.000000	0.000000	180.000000	-90.000000	0.000000
	2.9521	93.4491	-13.7609	0.602664	-0.103423	1.996747	-89.999990	-90.000000	0.000000	0.170617	0.138241	-0.184494	0.570408	0.458564	-0.616995	0.000000	0.000000	0.000000	0.000000	0.000000	0.000000	90.005100	-0.494937	-83.348280	-18.307340	-0.307596	1.904206	1.140133	13.347010	-6.025805	0.000000	0.000000	0.000000	-89.995190	0.181447	-87.561890	1.514522	-5.770583	4.256504	-0.274380	-5.149434	-5.886308	0.000000	0.000000	0.000000	154.697900	89.016560	115.998200	89.965720	3.819443	89.997240	-3.635453	-0.050515	-0.018014	178.592100	90.000000	0.000000	153.764000	85.493590	115.022300	-89.912320	-9.754649	89.997480	2.886543	-0.370533	0.166550	186.184600	-90.000000	0.000000
	2.4927	93.1848	-13.9774	0.999907	0.574942	1.596373	-89.999990	-90.000000	0.000000	0.140154	0.072784	-0.157330	0.468115	0.240710	-0.525887	0.000000	0.000000	0.000000	0.000000	0.000000	0.000000	90.003050	-0.463221	-83.775120	-18.885580	-1.818412	3.415527	1.405258	15.764730	-6.092452	0.000000	0.000000	0.000000	-89.995220	0.174858	-87.650370	6.178829	-4.896053	5.592506	-0.592835	-8.207994	-5.923358	0.000000	0.000000	0.000000	-178.801800	88.851490	87.810180	89.944170	6.222871	89.996670	-5.364751	-0.550361	-0.214478	179.048800	90.000000	0.000000	151.394400	86.642650	115.374100	-89.893410	-11.827790	89.998900	4.424003	-0.662641	0.270175	185.125800	-90.000000	0.000000
	2.0900	92.9021	-14.1559	1.292664	0.941423	1.287648	-89.999990	-90.000000	0.000000	0.114241	0.019740	-0.140828	0.373770	0.054765	-0.474230	0.000000	0.000000	0.000000	0.000000	0.000000	0.000000	90.001440	-0.435327	-84.150350	-19.191810	-2.832731	4.612158	1.654162	17.983180	-6.164714	0.000000	0.000000	0.000000	-89.995350	0.160265	-87.846320	9.845798	-4.048872	6.581714	-0.846007	-10.607080	-5.964749	0.000000	0.000000	0.000000	-165.846300	88.471890	73.479220	89.926130	8.226455	89.996880	-6.969957	-0.990553	-0.403040	179.533700	90.000000	0.000000	150.531400	87.441370	114.644400	-89.877040	-13.603670	90.000690	6.003958	-1.072244	0.439633	183.962300	-90.000000	0.000000
	1.8448	92.7195	-14.2419	1.399017	0.959819	1.099978	-89.999990	-90.000000	0.000000	0.094647	-0.015829	-0.137570	0.285887	-0.093232	-0.473446	0.000000	0.000000	0.000000	0.000000	0.000000	0.000000	90.000200	-0.411197	-84.474900	-19.297460	-3.101715	5.364461	1.790506	19.175490	-6.208158	0.000000	0.000000	0.000000	-89.995670	0.135245	-88.182440	11.608490	-3.346546	7.241444	-0.981541	-11.876580	-5.991174	0.000000	0.000000	0.000000	-159.586000	88.259890	66.406520	89.914310	9.531960	89.997380	-7.784758	-1.026771	-0.424615	179.702200	90.000000	0.000000	152.533000	87.794110	111.947800	-89.868950	-14.475060	90.001770	7.200629	-1.230805	0.525559	182.821700	-90.000000	0.000000
	1.7256	92.6395	-14.2811	1.422656	0.744477	0.983954	-89.999990	-90.000000	0.000000	0.056434	-0.071972	-0.154171	0.197926	-0.214254	-0.509850	0.000000	0.000000	0.000000	0.000000	0.000000	0.000000	89.999130	-0.388027	-84.786480	-19.319830	-2.825003	5.887040	1.824238	19.467850	-6.219319	0.000000	0.000000	0.000000	-89.996310	0.103062	-88.614830	11.927870	-2.480285	7.774088	-1.072505	-12.722070	-6.010551	0.000000	0.000000	0.000000	-153.454300	88.288540	59.740520	89.905780	10.471430	89.997890	-7.995780	-0.567660	-0.227960	179.627300	90.000000	0.000000	155.649300	87.904970	108.711700	-89.867200	-14.664500	90.002020	7.938031	-1.173400	0.538951	181.854000	-90.000000	0.000000
	1.6577	92.5815	-14.3432	1.470505	0.525537	0.909754	-89.999990	-90.000000	0.000000	0.034799	-0.095115	-0.170044	0.112912	-0.302432	-0.563823	0.000000	0.000000	0.000000	0.000000	0.000000	0.000000	89.998210	-0.365392	-85.090690	-19.282890	-2.462605	6.338858	1.829372	19.512250	-6.221032	0.000000	0.000000	0.000000	-89.997190	0.070882	-89.047160	11.763680	-1.640641	8.263925	-1.148318	-13.422440	-6.027699	0.000000	0.000000	0.000000	-146.202300	88.419500	52.093360	89.900180	11.084720	89.998310	-8.239652	-0.103458	-0.026144	179.675000	90.000000	0.000000	158.091300	87.955850	106.088500	-89.864910	-14.907820	90.002360	8.229513	-1.326501	0.655464	181.684100	-90.000000	0.000000
	1.5978	92.5044	-14.4434	1.554204	0.573648	0.870968	-89.999990	-90.000000	0.000000	0.017739	-0.110459	-0.183375	0.037292	-0.348713	-0.614560	0.000000	0.000000	0.000000	0.000000	0.000000	0.000000	89.997460	-0.344037	-85.377760	-19.138490	-2.595342	6.826525	1.888154	20.018930	-6.240910	0.000000	0.000000	0.000000	-89.998050	0.045912	-89.382740	11.670600	-1.403048	8.688786	-1.172667	-13.646530	-6.033397	0.000000	0.000000	0.000000	-138.483000	88.548310	44.155940	89.898600	11.259220	89.998440	-8.664139	-0.123922	-0.041721	179.859700	90.000000	0.000000	158.810500	88.001290	104.808800	-89.857890	-15.656500	90.003440	8.186630	-1.627855	0.800709	182.301100	-90.000000	0.000000
	1.5340	92.4272	-14.5044	1.587832	0.699439	0.887945	-89.999990	-90.000000	0.000000	-0.006898	-0.114554	-0.199732	-0.021043	-0.351275	-0.646768	0.000000	0.000000	0.000000	0.000000	0.000000	0.000000	89.996880	-0.325365	-85.628640	-18.823610	-3.197011	7.687860	2.082164	21.667790	-6.309949	0.000000	0.000000	0.000000	-89.998530	0.033295	-89.552320	11.610080	-1.434100	9.131521	-1.211189	-14.000160	-6.042602	0.000000	0.000000	0.000000	-132.963100	88.635250	38.647630	89.899930	11.113860	89.998320	-9.069841	-0.342966	-0.146197	179.974900	90.000000	0.000000	157.373100	88.030450	105.621000	-89.848350	-16.667700	90.005070	8.231215	-1.470281	0.715196	182.844100	-90.000000	0.000000
	1.4669	92.3666	-14.5185	1.583202	0.500832	0.949479	-89.999990	-90.000000	0.000000	-0.025289	-0.090728	-0.198675	-0.052665	-0.321627	-0.657990	0.000000	0.000000	0.000000	0.000000	0.000000	0.000000	89.996490	-0.311013	-85.821510	-18.262000	-3.697919	9.347213	2.452238	24.709120	-6.455720	0.000000	0.000000	0.000000	-89.998460	0.034996	-89.529430	11.372270	-0.884810	9.821117	-1.392906	-15.653300	-6.089107	0.000000	0.000000	0.000000	-129.782100	88.710360	35.449730	89.899730	11.136140	89.998340	-9.422338	-0.102567	-0.025574	179.999100	90.000000	0.000000	155.149500	88.043140	107.485800	-89.841260	-17.414090	90.006390	8.586922	-0.826640	0.415996	182.840000	-90.000000	0.000000
	1.3823	92.3072	-14.6040	1.678802	0.046288	0.976443	-89.999990	-90.000000	0.000000	-0.022660	-0.084469	-0.197359	-0.044794	-0.280931	-0.661159	0.000000	0.000000	0.000000	0.000000	0.000000	0.000000	89.996280	-0.302284	-85.938760	-17.401270	-4.025577	11.805480	2.966112	28.695110	-6.686771	0.000000	0.000000	0.000000	-89.997900	0.049781	-89.330740	10.963760	0.069861	10.896290	-1.704740	-18.427430	-6.180516	0.000000	0.000000	0.000000	-122.392400	88.801350	27.564970	89.893810	11.782980	89.998840	-9.747166	0.491978	0.277632	180.000000	90.000000	0.000000	154.802800	88.069920	107.561100	-89.837870	-17.768580	90.007050	8.965118	-0.266785	0.155782	182.649900	-90.000000	0.000000
	1.2461	92.2350	-14.7818	1.863437	-0.339116	0.930513	-89.999990	-90.000000	0.000000	0.009981	-0.069192	-0.202846	0.018759	-0.248808	-0.678599	0.000000	0.000000	0.000000	0.000000	0.000000	0.000000	89.996220	-0.299584	-85.975040	-16.292180	-4.589869	14.658370	3.540829	32.817180	-6.980866	0.000000	0.000000	0.000000	-89.997090	0.074182	-89.002850	10.650910	0.436063	12.314510	-2.006034	-21.025110	-6.282238	0.000000	0.000000	0.000000	-104.434500	88.839040	8.688706	89.883380	12.918200	89.999910	-9.965508	0.727197	0.405644	179.996100	90.000000	0.000000	157.338700	88.133190	104.642000	-89.835440	-18.022110	90.007540	9.249499	-0.098792	0.075228	182.453100	-90.000000	0.000000
	1.0805	92.1600	-14.9542	2.008540	-0.473262	0.869524	-89.999990	-90.000000	0.000000	0.047360	-0.068223	-0.218972	0.151693	-0.233839	-0.730665	0.000000	0.000000	0.000000	0.000000	0.000000	0.000000	89.996280	-0.301915	-85.943750	-14.996670	-5.685249	17.556310	4.167068	36.908560	-7.339063	0.000000	0.000000	0.000000	-89.996290	0.104108	-88.600780	11.066430	-0.121114	14.089400	-2.282552	-23.331910	-6.386642	0.000000	0.000000	0.000000	-79.904200	88.706100	-16.814860	89.871170	14.237450	90.001430	-10.095190	0.398398	0.243354	179.984500	90.000000	0.000000	160.590600	88.204070	100.955200	-89.831780	-18.403380	90.008290	9.607451	-0.213031	0.133260	182.071600	-90.000000	0.000000
	0.9762	92.0979	-15.0764	2.089136	-0.360535	0.866173	-89.999990	-90.000000	0.000000	0.107860	-0.069327	-0.248813	0.353609	-0.233523	-0.827648	0.000000	0.000000	0.000000	0.000000	0.000000	0.000000	89.996390	-0.306926	-85.876390	-13.613100	-7.368439	20.489140	4.968626	41.567280	-7.846507	0.000000	0.000000	0.000000	-89.995660	0.136322	-88.168060	12.906080	-0.749607	16.506290	-2.724563	-26.856490	-6.574192	0.000000	0.000000	0.000000	-57.780670	88.423420	-39.790320	89.858980	15.541020	90.003230	-10.291240	-0.004127	0.039407	179.968100	90.000000	0.000000	161.386500	88.249440	99.789170	-89.828030	-18.791460	90.009090	9.894054	-0.269391	0.164007	181.776500	-90.000000	0.000000
	0.9507	92.0535	-15.1857	2.167898	-0.252379	0.912732	-89.999990	-90.000000	0.000000	0.181546	-0.071726	-0.291881	0.599885	-0.242329	-0.970577	0.000000	0.000000	0.000000	0.000000	0.000000	0.000000	89.996510	-0.311818	-85.810680	-12.415710	-9.245998	23.680230	6.016269	46.776100	-8.577281	0.000000	0.000000	0.000000	-89.995260	0.168964	-87.729570	15.073160	-0.671388	19.556080	-3.567327	-32.998680	-6.995262	0.000000	0.000000	0.000000	-42.420360	88.102550	-56.010340	89.846590	16.853800	90.005350	-10.513750	0.102008	0.103577	179.801000	90.000000	0.000000	160.427800	88.269470	100.482200	-89.825980	-19.003570	90.009540	9.936021	0.022932	0.012957	181.878800	-90.000000	0.000000
	0.9164	92.0018	-15.3062	2.268468	-0.466529	0.958938	-89.999990	-90.000000	0.000000	0.253757	-0.075880	-0.347982	0.842447	-0.258767	-1.157968	0.000000	0.000000	0.000000	0.000000	0.000000	0.000000	89.996580	-0.314441	-85.775430	-11.414810	-10.547480	27.080770	7.218220	51.713620	-9.488627	0.000000	0.000000	0.000000	-89.995120	0.200780	-87.302250	15.385010	0.063922	22.757000	-5.043870	-41.973180	-7.896631	0.000000	0.000000	0.000000	-34.570210	87.891260	-65.145670	89.827660	18.830800	90.009130	-10.580820	0.741511	0.454786	179.136500	90.000000	0.000000	160.180700	88.282320	100.498000	-89.824360	-19.171510	90.009900	10.013590	0.554591	-0.262715	182.018900	-90.000000	0.000000
	0.8339	91.9175	-15.4069	2.330366	-1.000629	1.019226	-89.999990	-90.000000	0.000000	0.308065	-0.082663	-0.417740	1.024165	-0.284483	-1.390652	0.000000	0.000000	0.000000	0.000000	0.000000	0.000000	89.996510	-0.311716	-85.812050	-10.396870	-10.808510	30.274300	8.393789	55.677060	-10.436570	0.000000	0.000000	0.000000	-89.995210	0.229493	-86.916570	13.832670	0.770719	25.971230	-7.435052	-52.503150	-9.659750	0.000000	0.000000	0.000000	-30.829210	87.850200	-70.667240	89.799100	21.739550	90.016060	-10.465620	1.336967	0.776849	177.912500	90.000000	0.000000	159.547400	88.291880	100.928600	-89.821710	-19.444550	90.010500	10.333540	0.829326	-0.407839	181.892800	-90.000000	0.000000
